# xmcd CD database file
#
# Track frame offsets:
#	150
#	33653
#	62582
#	102296
#	134485
#	161949
#	190079
#	225551
#	252279
#	286524
#	310315
#	329965
#
# Disc length: 4427 seconds
#
# Revision: 0
# Processed by: cddbd v1.5.2PL0 Copyright (c) Steve Scherf et al.
# Submitted via: CDex 1.70beta2
#
DISCID=af11490c
DTITLE=Lee Child - 61 Hours Disc 5
DYEAR=2010
DGENRE=Audio Book
TTITLE0=61 Hours Disc 5-01
TTITLE1=61 Hours Disc 5-02
TTITLE2=61 Hours Disc 5-03
TTITLE3=61 Hours Disc 5-04
TTITLE4=61 Hours Disc 5-05
TTITLE5=61 Hours Disc 5-06
TTITLE6=61 Hours Disc 5-07
TTITLE7=61 Hours Disc 5-08
TTITLE8=61 Hours Disc 5-09
TTITLE9=61 Hours Disc 5-10
TTITLE10=61 Hours Disc 5-11
TTITLE11=61 Hours Disc 5-12
EXTD=YEAR: 2010
EXTT0=
EXTT1=
EXTT2=
EXTT3=
EXTT4=
EXTT5=
EXTT6=
EXTT7=
EXTT8=
EXTT9=
EXTT10=
EXTT11=
PLAYORDER=
